<svg id="Группа_5" data-name="Группа 5" xmlns="http://www.w3.org/2000/svg" width="53" height="53" viewBox="0 0 53 53">
  <defs>
    <style>
      .cls-1 {
        opacity: 0.5;
      }

      .cls-2 {
        fill: #fff;
        fill-rule: evenodd;
      }
    </style>
  </defs>
  <circle id="Эллипс_3_копия" data-name="Эллипс 3 копия" class="cls-1" cx="26.5" cy="26.5" r="26.5"/>
  <path id="Прямоугольник_скругл._углы_1_копия_2" data-name="Прямоугольник, скругл. углы 1 копия 2" class="cls-2" d="M1744.54,470.655l-6.79,6.877a1.582,1.582,0,0,1-2.26,0,1.626,1.626,0,0,1,0-2.292l6.79-6.877a1.58,1.58,0,0,1,2.26,0A1.645,1.645,0,0,1,1744.54,470.655Zm0,0a1.584,1.584,0,0,1-2.26,0l-6.79-6.876a1.627,1.627,0,0,1,0-2.293,1.58,1.58,0,0,1,2.26,0l6.79,6.877A1.645,1.645,0,0,1,1744.54,470.655Z" transform="translate(-1711 -443)"/>
</svg>
