<svg id="Группа_4" data-name="Группа 4" xmlns="http://www.w3.org/2000/svg" width="53" height="53" viewBox="0 0 53 53">
  <defs>
    <style>
      .cls-1 {
        opacity: 0.5;
      }

      .cls-2 {
        fill: #fff;
        fill-rule: evenodd;
      }
    </style>
  </defs>
  <circle id="Эллипс_3" data-name="Эллипс 3" class="cls-1" cx="26.5" cy="26.5" r="26.5"/>
  <path id="Прямоугольник_скругл._углы_1_копия" data-name="Прямоугольник, скругл. углы 1 копия" class="cls-2" d="M175.46,468.342l6.788-6.876a1.584,1.584,0,0,1,2.263,0,1.634,1.634,0,0,1,0,2.291l-6.788,6.877a1.584,1.584,0,0,1-2.263,0A1.635,1.635,0,0,1,175.46,468.342Zm0,0a1.584,1.584,0,0,1,2.263,0l6.788,6.877a1.635,1.635,0,0,1,0,2.292,1.584,1.584,0,0,1-2.263,0l-6.788-6.877A1.635,1.635,0,0,1,175.46,468.342Z" transform="translate(-156 -443)"/>
</svg>
